<svg xmlns="http://www.w3.org/2000/svg" width="243.42" height="34.04" viewBox="0 0 243.42 34.04">
  <g id="logo-fit_ecom" transform="translate(-249.409 -302.741)">
    <path id="logo" d="M-839.205-8320.514l6.33-33.04h9.942l-5.956,33.04Zm-13.15-.033,6.1-29.057h9.942l-5.73,29.057Zm-12.615,0,5.751-26.512h9.7l-5.533,26.512Z" transform="translate(1115 8656.795)" fill="#0de6df" stroke="rgba(0,0,0,0)" stroke-width="1"/>
    <path id="Path_1924" data-name="Path 1924" d="M-.55,0l6.8-32.2h24.2L29-25.2H14.2L13-19.65H25.9l-1.5,7.1H11.5L8.85,0ZM24.7,0l6.8-32.2h9.4L34.1,0ZM44.2,0l5.35-25.2H40.5l1.45-7h27.5L68-25.2H58.95L53.6,0ZM62.7,0l1.4-6.75h7.4L70.1,0Z" transform="translate(291.029 335.941)" fill="#fff"/>
    <path id="Path_1932" data-name="Path 1932" d="M72.1,0l6.8-32.2h24.4L101.8-25h-15l-1.15,5.25H98.8l-1.55,7.3H84.1L83-7.2H98L96.5,0Zm42.75.5q-6.95,0-10.925-3.2T99.95-11.8a21.272,21.272,0,0,1,.45-4.15q1.75-8.1,6.8-12.425T121.9-32.7a26.645,26.645,0,0,1,5.225.45A24.346,24.346,0,0,1,131.35-31l-1.75,8.2a19.514,19.514,0,0,0-8.75-1.9,11.382,11.382,0,0,0-7.2,2.075Q111-20.55,110-15.95q-.2.9-.3,1.675a11.543,11.543,0,0,0-.1,1.475,4.617,4.617,0,0,0,1.775,4.025Q113.15-7.5,117.25-7.5a25.6,25.6,0,0,0,4.775-.45,27.523,27.523,0,0,0,4.825-1.4L125.1-1.1A33.871,33.871,0,0,1,120.325.075,32.465,32.465,0,0,1,114.85.5Zm27.3,0q-6.2,0-9.85-2.725T128.65-10.9a25.038,25.038,0,0,1,.6-5.1,26.9,26.9,0,0,1,3.85-9.675,14.783,14.783,0,0,1,6.575-5.35A24.844,24.844,0,0,1,149.25-32.7q6.4,0,9.95,2.775t3.55,8.675a26.674,26.674,0,0,1-.6,5.25q-1.85,8.7-6.725,12.6T142.15.5Zm1.7-8a7.777,7.777,0,0,0,5.675-2.025Q151.6-11.55,152.55-16q.25-1.2.375-2.225a15.256,15.256,0,0,0,.125-1.825,4.442,4.442,0,0,0-1.275-3.575A6.564,6.564,0,0,0,147.55-24.7a7.715,7.715,0,0,0-5.625,1.975Q139.9-20.75,138.85-16q-.25,1.2-.4,2.2a12.53,12.53,0,0,0-.15,1.85,4.068,4.068,0,0,0,1.325,3.425A6.938,6.938,0,0,0,143.85-7.5ZM160.8,0l6.8-32.2h8.85L181-15.85,192.4-32.2h9.4L195,0h-9.4L189-16.1,181.6-5.5h-5.05L173.6-16.1,170.2,0Z" transform="translate(291.029 335.941)" fill="#c0b9dd"/>
  </g>
</svg>
